<?xml version="1.0" encoding="UTF-8" standalone="no"?>
<!DOCTYPE svg PUBLIC "-//W3C//DTD SVG 1.1//EN"
 "http://www.w3.org/Graphics/SVG/1.1/DTD/svg11.dtd">
<!-- Generated by graphviz version 2.46.0 (20210118.1747)
 -->
<!-- Title: dependency&#45;cruiser output Pages: 1 -->
<svg width="434pt" height="556pt"
 viewBox="0.00 0.00 433.50 556.00" xmlns="http://www.w3.org/2000/svg" xmlns:xlink="http://www.w3.org/1999/xlink">
<g id="graph0" class="graph" transform="scale(1 1) rotate(0) translate(4 552)">
<title>dependency&#45;cruiser output</title>
<polygon fill="white" stroke="transparent" points="-4,4 -4,-552 429.5,-552 429.5,4 -4,4"/>
<g id="clust1" class="cluster">
<title>cluster_src</title>
<path fill="#ffffff" stroke="black" stroke-width="2" d="M20,-8C20,-8 405.5,-8 405.5,-8 411.5,-8 417.5,-14 417.5,-20 417.5,-20 417.5,-528 417.5,-528 417.5,-534 411.5,-540 405.5,-540 405.5,-540 20,-540 20,-540 14,-540 8,-534 8,-528 8,-528 8,-20 8,-20 8,-14 14,-8 20,-8"/>
<text text-anchor="middle" x="212.75" y="-528.8" font-family="Helvetica,sans-Serif" font-weight="bold" font-size="9.00">src</text>
</g>
<g id="clust3" class="cluster">
<title>cluster_src/models</title>
<path fill="#ffffff" stroke="black" stroke-width="2" d="M90,-16C90,-16 295.5,-16 295.5,-16 301.5,-16 307.5,-22 307.5,-28 307.5,-28 307.5,-386 307.5,-386 307.5,-392 301.5,-398 295.5,-398 295.5,-398 90,-398 90,-398 84,-398 78,-392 78,-386 78,-386 78,-28 78,-28 78,-22 84,-16 90,-16"/>
<text text-anchor="middle" x="192.75" y="-386.8" font-family="Helvetica,sans-Serif" font-weight="bold" font-size="9.00">models</text>
</g>
<g id="clust2" class="cluster">
<title>cluster_src/enums</title>
<path fill="#ffffff" stroke="black" stroke-width="2" d="M204.5,-406C204.5,-406 397.5,-406 397.5,-406 403.5,-406 409.5,-412 409.5,-418 409.5,-418 409.5,-476 409.5,-476 409.5,-482 403.5,-488 397.5,-488 397.5,-488 204.5,-488 204.5,-488 198.5,-488 192.5,-482 192.5,-476 192.5,-476 192.5,-418 192.5,-418 192.5,-412 198.5,-406 204.5,-406"/>
<text text-anchor="middle" x="301" y="-476.8" font-family="Helvetica,sans-Serif" font-weight="bold" font-size="9.00">enums</text>
</g>
<!-- src/enums/execution&#45;type.ts -->
<g id="node1" class="node">
<title>src/enums/execution&#45;type.ts</title>
<g id="a_node1"><a xlink:href="src/enums/execution-type.ts" xlink:title="execution&#45;type.ts">
<path fill="#ddfeff" stroke="black" d="M395.5,-432C395.5,-432 321.5,-432 321.5,-432 318.5,-432 315.5,-429 315.5,-426 315.5,-426 315.5,-420 315.5,-420 315.5,-417 318.5,-414 321.5,-414 321.5,-414 395.5,-414 395.5,-414 398.5,-414 401.5,-417 401.5,-420 401.5,-420 401.5,-426 401.5,-426 401.5,-429 398.5,-432 395.5,-432"/>
<text text-anchor="middle" x="358.5" y="-420.8" font-family="Helvetica,sans-Serif" font-size="9.00">execution&#45;type.ts</text>
</a>
</g>
</g>
<!-- src/enums/index.ts -->
<g id="node2" class="node">
<title>src/enums/index.ts</title>
<g id="a_node2"><a xlink:href="src/enums/index.ts" xlink:title="index.ts">
<path fill="#ddfeff" stroke="black" d="M248.5,-447C248.5,-447 206.5,-447 206.5,-447 203.5,-447 200.5,-444 200.5,-441 200.5,-441 200.5,-435 200.5,-435 200.5,-432 203.5,-429 206.5,-429 206.5,-429 248.5,-429 248.5,-429 251.5,-429 254.5,-432 254.5,-435 254.5,-435 254.5,-441 254.5,-441 254.5,-444 251.5,-447 248.5,-447"/>
<text text-anchor="middle" x="227.5" y="-435.8" font-family="Helvetica,sans-Serif" font-size="9.00">index.ts</text>
</a>
</g>
</g>
<!-- src/enums/index.ts&#45;&gt;src/enums/execution&#45;type.ts -->
<g id="edge1" class="edge">
<title>src/enums/index.ts&#45;&gt;src/enums/execution&#45;type.ts</title>
<path fill="none" stroke="#000000" stroke-width="2" stroke-opacity="0.200000" d="M254.61,-434.96C270.28,-433.14 290.71,-430.77 309.24,-428.61"/>
<polygon fill="#000000" fill-opacity="0.200000" stroke="#000000" stroke-width="2" stroke-opacity="0.200000" points="309.72,-430.67 315.44,-427.89 309.23,-426.5 309.72,-430.67"/>
</g>
<!-- src/enums/networks.ts -->
<g id="node3" class="node">
<title>src/enums/networks.ts</title>
<g id="a_node3"><a xlink:href="src/enums/networks.ts" xlink:title="networks.ts">
<path fill="#ddfeff" stroke="black" d="M383.5,-462C383.5,-462 333.5,-462 333.5,-462 330.5,-462 327.5,-459 327.5,-456 327.5,-456 327.5,-450 327.5,-450 327.5,-447 330.5,-444 333.5,-444 333.5,-444 383.5,-444 383.5,-444 386.5,-444 389.5,-447 389.5,-450 389.5,-450 389.5,-456 389.5,-456 389.5,-459 386.5,-462 383.5,-462"/>
<text text-anchor="middle" x="358.5" y="-450.8" font-family="Helvetica,sans-Serif" font-size="9.00">networks.ts</text>
</a>
</g>
</g>
<!-- src/enums/index.ts&#45;&gt;src/enums/networks.ts -->
<g id="edge2" class="edge">
<title>src/enums/index.ts&#45;&gt;src/enums/networks.ts</title>
<path fill="none" stroke="#000000" stroke-width="2" stroke-opacity="0.200000" d="M254.61,-441.04C273.77,-443.26 300.04,-446.32 321.24,-448.78"/>
<polygon fill="#000000" fill-opacity="0.200000" stroke="#000000" stroke-width="2" stroke-opacity="0.200000" points="321.16,-450.89 327.36,-449.5 321.64,-446.72 321.16,-450.89"/>
</g>
<!-- src/index.ts -->
<g id="node4" class="node">
<title>src/index.ts</title>
<g id="a_node4"><a xlink:href="src/index.ts" xlink:title="index.ts">
<path fill="#ddfeff" stroke="black" d="M64,-372C64,-372 22,-372 22,-372 19,-372 16,-369 16,-366 16,-366 16,-360 16,-360 16,-357 19,-354 22,-354 22,-354 64,-354 64,-354 67,-354 70,-357 70,-360 70,-360 70,-366 70,-366 70,-369 67,-372 64,-372"/>
<text text-anchor="middle" x="43" y="-360.8" font-family="Helvetica,sans-Serif" font-size="9.00">index.ts</text>
</a>
</g>
</g>
<!-- src/models/index.ts -->
<g id="node5" class="node">
<title>src/models/index.ts</title>
<g id="a_node5"><a xlink:href="src/models/index.ts" xlink:title="index.ts">
<path fill="#ddfeff" stroke="black" d="M134,-222C134,-222 92,-222 92,-222 89,-222 86,-219 86,-216 86,-216 86,-210 86,-210 86,-207 89,-204 92,-204 92,-204 134,-204 134,-204 137,-204 140,-207 140,-210 140,-210 140,-216 140,-216 140,-219 137,-222 134,-222"/>
<text text-anchor="middle" x="113" y="-210.8" font-family="Helvetica,sans-Serif" font-size="9.00">index.ts</text>
</a>
</g>
</g>
<!-- src/index.ts&#45;&gt;src/models/index.ts -->
<g id="edge3" class="edge">
<title>src/index.ts&#45;&gt;src/models/index.ts</title>
<path fill="none" stroke="#000000" stroke-width="2" stroke-opacity="0.200000" d="M43.56,-353.69C42.92,-329.48 44.54,-263.81 78,-226 78.82,-225.08 79.71,-224.22 80.65,-223.42"/>
<polygon fill="#000000" fill-opacity="0.200000" stroke="#000000" stroke-width="2" stroke-opacity="0.200000" points="82.01,-225.04 85.79,-219.92 79.65,-221.57 82.01,-225.04"/>
</g>
<!-- src/models/multicall&#45;options.ts -->
<g id="node6" class="node">
<title>src/models/multicall&#45;options.ts</title>
<g id="a_node6"><a xlink:href="src/models/multicall-options.ts" xlink:title="multicall&#45;options.ts">
<path fill="#ddfeff" stroke="black" d="M267.5,-372C267.5,-372 187.5,-372 187.5,-372 184.5,-372 181.5,-369 181.5,-366 181.5,-366 181.5,-360 181.5,-360 181.5,-357 184.5,-354 187.5,-354 187.5,-354 267.5,-354 267.5,-354 270.5,-354 273.5,-357 273.5,-360 273.5,-360 273.5,-366 273.5,-366 273.5,-369 270.5,-372 267.5,-372"/>
<text text-anchor="middle" x="227.5" y="-360.8" font-family="Helvetica,sans-Serif" font-size="9.00">multicall&#45;options.ts</text>
</a>
</g>
</g>
<!-- src/index.ts&#45;&gt;src/models/multicall&#45;options.ts -->
<g id="edge4" class="edge">
<title>src/index.ts&#45;&gt;src/models/multicall&#45;options.ts</title>
<path fill="none" stroke="#000000" stroke-width="2" stroke-opacity="0.200000" d="M70.15,-363C97.43,-363 140.9,-363 175.09,-363"/>
<polygon fill="#000000" fill-opacity="0.200000" stroke="#000000" stroke-width="2" stroke-opacity="0.200000" points="175.36,-365.1 181.36,-363 175.36,-360.9 175.36,-365.1"/>
</g>
<!-- src/multicall.ts -->
<g id="node7" class="node">
<title>src/multicall.ts</title>
<g id="a_node7"><a xlink:href="src/multicall.ts" xlink:title="multicall.ts">
<path fill="#ddfeff" stroke="black" d="M136.5,-447C136.5,-447 89.5,-447 89.5,-447 86.5,-447 83.5,-444 83.5,-441 83.5,-441 83.5,-435 83.5,-435 83.5,-432 86.5,-429 89.5,-429 89.5,-429 136.5,-429 136.5,-429 139.5,-429 142.5,-432 142.5,-435 142.5,-435 142.5,-441 142.5,-441 142.5,-444 139.5,-447 136.5,-447"/>
<text text-anchor="middle" x="113" y="-435.8" font-family="Helvetica,sans-Serif" font-size="9.00">multicall.ts</text>
</a>
</g>
</g>
<!-- src/index.ts&#45;&gt;src/multicall.ts -->
<g id="edge5" class="edge">
<title>src/index.ts&#45;&gt;src/multicall.ts</title>
<path fill="none" stroke="#000000" stroke-width="2" stroke-opacity="0.200000" d="M52.07,-372.09C58.94,-379.81 69.08,-391.16 78,-401 85.05,-408.77 92.98,-417.41 99.4,-424.38"/>
<polygon fill="#000000" fill-opacity="0.200000" stroke="#000000" stroke-width="2" stroke-opacity="0.200000" points="97.97,-425.92 103.58,-428.91 101.06,-423.07 97.97,-425.92"/>
</g>
<!-- src/models/index.ts&#45;&gt;src/models/multicall&#45;options.ts -->
<g id="edge17" class="edge">
<title>src/models/index.ts&#45;&gt;src/models/multicall&#45;options.ts</title>
<path fill="none" stroke="#000000" stroke-width="2" stroke-opacity="0.200000" d="M138.94,-222.2C140.27,-223.33 141.48,-224.59 142.5,-226 158.44,-248.12 137.23,-327.76 155.5,-348 160.81,-353.89 167.81,-357.79 175.34,-360.32"/>
<polygon fill="#000000" fill-opacity="0.200000" stroke="#000000" stroke-width="2" stroke-opacity="0.200000" points="174.83,-362.36 181.18,-362 175.99,-358.32 174.83,-362.36"/>
</g>
<!-- src/models/abi&#45;input.ts -->
<g id="node8" class="node">
<title>src/models/abi&#45;input.ts</title>
<g id="a_node8"><a xlink:href="src/models/abi-input.ts" xlink:title="abi&#45;input.ts">
<path fill="#ddfeff" stroke="black" d="M252.5,-42C252.5,-42 202.5,-42 202.5,-42 199.5,-42 196.5,-39 196.5,-36 196.5,-36 196.5,-30 196.5,-30 196.5,-27 199.5,-24 202.5,-24 202.5,-24 252.5,-24 252.5,-24 255.5,-24 258.5,-27 258.5,-30 258.5,-30 258.5,-36 258.5,-36 258.5,-39 255.5,-42 252.5,-42"/>
<text text-anchor="middle" x="227.5" y="-30.8" font-family="Helvetica,sans-Serif" font-size="9.00">abi&#45;input.ts</text>
</a>
</g>
</g>
<!-- src/models/index.ts&#45;&gt;src/models/abi&#45;input.ts -->
<g id="edge6" class="edge">
<title>src/models/index.ts&#45;&gt;src/models/abi&#45;input.ts</title>
<path fill="none" stroke="#000000" stroke-width="2" stroke-opacity="0.200000" d="M115.04,-203.79C118.77,-172.38 132.52,-70.12 155.5,-48 164.7,-39.14 177.76,-34.95 190.17,-33.11"/>
<polygon fill="#000000" fill-opacity="0.200000" stroke="#000000" stroke-width="2" stroke-opacity="0.200000" points="190.48,-35.19 196.19,-32.39 189.98,-31.02 190.48,-35.19"/>
</g>
<!-- src/models/abi&#45;item.ts -->
<g id="node9" class="node">
<title>src/models/abi&#45;item.ts</title>
<g id="a_node9"><a xlink:href="src/models/abi-item.ts" xlink:title="abi&#45;item.ts">
<path fill="#ddfeff" stroke="black" d="M251,-72C251,-72 204,-72 204,-72 201,-72 198,-69 198,-66 198,-66 198,-60 198,-60 198,-57 201,-54 204,-54 204,-54 251,-54 251,-54 254,-54 257,-57 257,-60 257,-60 257,-66 257,-66 257,-69 254,-72 251,-72"/>
<text text-anchor="middle" x="227.5" y="-60.8" font-family="Helvetica,sans-Serif" font-size="9.00">abi&#45;item.ts</text>
</a>
</g>
</g>
<!-- src/models/index.ts&#45;&gt;src/models/abi&#45;item.ts -->
<g id="edge7" class="edge">
<title>src/models/index.ts&#45;&gt;src/models/abi&#45;item.ts</title>
<path fill="none" stroke="#000000" stroke-width="2" stroke-opacity="0.200000" d="M113.86,-203.82C114.02,-179.37 118.03,-112.24 155.5,-78 165.25,-69.09 178.92,-64.96 191.67,-63.19"/>
<polygon fill="#000000" fill-opacity="0.200000" stroke="#000000" stroke-width="2" stroke-opacity="0.200000" points="192.1,-65.26 197.83,-62.5 191.64,-61.08 192.1,-65.26"/>
</g>
<!-- src/models/abi&#45;output.ts -->
<g id="node10" class="node">
<title>src/models/abi&#45;output.ts</title>
<g id="a_node10"><a xlink:href="src/models/abi-output.ts" xlink:title="abi&#45;output.ts">
<path fill="#ddfeff" stroke="black" d="M255,-102C255,-102 200,-102 200,-102 197,-102 194,-99 194,-96 194,-96 194,-90 194,-90 194,-87 197,-84 200,-84 200,-84 255,-84 255,-84 258,-84 261,-87 261,-90 261,-90 261,-96 261,-96 261,-99 258,-102 255,-102"/>
<text text-anchor="middle" x="227.5" y="-90.8" font-family="Helvetica,sans-Serif" font-size="9.00">abi&#45;output.ts</text>
</a>
</g>
</g>
<!-- src/models/index.ts&#45;&gt;src/models/abi&#45;output.ts -->
<g id="edge8" class="edge">
<title>src/models/index.ts&#45;&gt;src/models/abi&#45;output.ts</title>
<path fill="none" stroke="#000000" stroke-width="2" stroke-opacity="0.200000" d="M114.79,-203.76C117.07,-183.15 125.55,-133.29 155.5,-108 164.52,-100.39 176.44,-96.34 187.94,-94.26"/>
<polygon fill="#000000" fill-opacity="0.200000" stroke="#000000" stroke-width="2" stroke-opacity="0.200000" points="188.28,-96.33 193.89,-93.35 187.64,-92.18 188.28,-96.33"/>
</g>
<!-- src/models/aggregate&#45;call&#45;context.ts -->
<g id="node11" class="node">
<title>src/models/aggregate&#45;call&#45;context.ts</title>
<g id="a_node11"><a xlink:href="src/models/aggregate-call-context.ts" xlink:title="aggregate&#45;call&#45;context.ts">
<path fill="#ddfeff" stroke="black" d="M280,-132C280,-132 175,-132 175,-132 172,-132 169,-129 169,-126 169,-126 169,-120 169,-120 169,-117 172,-114 175,-114 175,-114 280,-114 280,-114 283,-114 286,-117 286,-120 286,-120 286,-126 286,-126 286,-129 283,-132 280,-132"/>
<text text-anchor="middle" x="227.5" y="-120.8" font-family="Helvetica,sans-Serif" font-size="9.00">aggregate&#45;call&#45;context.ts</text>
</a>
</g>
</g>
<!-- src/models/index.ts&#45;&gt;src/models/aggregate&#45;call&#45;context.ts -->
<g id="edge9" class="edge">
<title>src/models/index.ts&#45;&gt;src/models/aggregate&#45;call&#45;context.ts</title>
<path fill="none" stroke="#000000" stroke-width="2" stroke-opacity="0.200000" d="M116.32,-203.97C120.92,-187.98 132.77,-154.81 155.5,-138 157.91,-136.22 160.48,-134.64 163.16,-133.24"/>
<polygon fill="#000000" fill-opacity="0.200000" stroke="#000000" stroke-width="2" stroke-opacity="0.200000" points="164.26,-135.05 168.81,-130.62 162.49,-131.24 164.26,-135.05"/>
</g>
<!-- src/models/aggregate&#45;contract&#45;response.ts -->
<g id="node12" class="node">
<title>src/models/aggregate&#45;contract&#45;response.ts</title>
<g id="a_node12"><a xlink:href="src/models/aggregate-contract-response.ts" xlink:title="aggregate&#45;contract&#45;response.ts">
<path fill="#ddfeff" stroke="black" d="M293.5,-162C293.5,-162 161.5,-162 161.5,-162 158.5,-162 155.5,-159 155.5,-156 155.5,-156 155.5,-150 155.5,-150 155.5,-147 158.5,-144 161.5,-144 161.5,-144 293.5,-144 293.5,-144 296.5,-144 299.5,-147 299.5,-150 299.5,-150 299.5,-156 299.5,-156 299.5,-159 296.5,-162 293.5,-162"/>
<text text-anchor="middle" x="227.5" y="-150.8" font-family="Helvetica,sans-Serif" font-size="9.00">aggregate&#45;contract&#45;response.ts</text>
</a>
</g>
</g>
<!-- src/models/index.ts&#45;&gt;src/models/aggregate&#45;contract&#45;response.ts -->
<g id="edge10" class="edge">
<title>src/models/index.ts&#45;&gt;src/models/aggregate&#45;contract&#45;response.ts</title>
<path fill="none" stroke="#000000" stroke-width="2" stroke-opacity="0.200000" d="M119.84,-203.83C126.96,-193.45 139.98,-176.83 155.5,-168 157.78,-166.7 160.16,-165.52 162.6,-164.44"/>
<polygon fill="#000000" fill-opacity="0.200000" stroke="#000000" stroke-width="2" stroke-opacity="0.200000" points="163.64,-166.28 168.42,-162.09 162.07,-162.39 163.64,-166.28"/>
</g>
<!-- src/models/aggregate&#45;response.ts -->
<g id="node13" class="node">
<title>src/models/aggregate&#45;response.ts</title>
<g id="a_node13"><a xlink:href="src/models/aggregate-response.ts" xlink:title="aggregate&#45;response.ts">
<path fill="#ddfeff" stroke="black" d="M276,-192C276,-192 179,-192 179,-192 176,-192 173,-189 173,-186 173,-186 173,-180 173,-180 173,-177 176,-174 179,-174 179,-174 276,-174 276,-174 279,-174 282,-177 282,-180 282,-180 282,-186 282,-186 282,-189 279,-192 276,-192"/>
<text text-anchor="middle" x="227.5" y="-180.8" font-family="Helvetica,sans-Serif" font-size="9.00">aggregate&#45;response.ts</text>
</a>
</g>
</g>
<!-- src/models/index.ts&#45;&gt;src/models/aggregate&#45;response.ts -->
<g id="edge11" class="edge">
<title>src/models/index.ts&#45;&gt;src/models/aggregate&#45;response.ts</title>
<path fill="none" stroke="#000000" stroke-width="2" stroke-opacity="0.200000" d="M137.52,-203.86C143.34,-201.77 149.61,-199.68 155.5,-198 161.23,-196.37 167.26,-194.83 173.28,-193.4"/>
<polygon fill="#000000" fill-opacity="0.200000" stroke="#000000" stroke-width="2" stroke-opacity="0.200000" points="173.93,-195.41 179.3,-192.01 172.98,-191.32 173.93,-195.41"/>
</g>
<!-- src/models/call&#45;context.ts -->
<g id="node14" class="node">
<title>src/models/call&#45;context.ts</title>
<g id="a_node14"><a xlink:href="src/models/call-context.ts" xlink:title="call&#45;context.ts">
<path fill="#ddfeff" stroke="black" d="M257.5,-222C257.5,-222 197.5,-222 197.5,-222 194.5,-222 191.5,-219 191.5,-216 191.5,-216 191.5,-210 191.5,-210 191.5,-207 194.5,-204 197.5,-204 197.5,-204 257.5,-204 257.5,-204 260.5,-204 263.5,-207 263.5,-210 263.5,-210 263.5,-216 263.5,-216 263.5,-219 260.5,-222 257.5,-222"/>
<text text-anchor="middle" x="227.5" y="-210.8" font-family="Helvetica,sans-Serif" font-size="9.00">call&#45;context.ts</text>
</a>
</g>
</g>
<!-- src/models/index.ts&#45;&gt;src/models/call&#45;context.ts -->
<g id="edge12" class="edge">
<title>src/models/index.ts&#45;&gt;src/models/call&#45;context.ts</title>
<path fill="none" stroke="#000000" stroke-width="2" stroke-opacity="0.200000" d="M140.09,-213C153.38,-213 169.86,-213 184.85,-213"/>
<polygon fill="#000000" fill-opacity="0.200000" stroke="#000000" stroke-width="2" stroke-opacity="0.200000" points="185.17,-215.1 191.17,-213 185.17,-210.9 185.17,-215.1"/>
</g>
<!-- src/models/call&#45;return&#45;context.ts -->
<g id="node15" class="node">
<title>src/models/call&#45;return&#45;context.ts</title>
<g id="a_node15"><a xlink:href="src/models/call-return-context.ts" xlink:title="call&#45;return&#45;context.ts">
<path fill="#ddfeff" stroke="black" d="M271,-252C271,-252 184,-252 184,-252 181,-252 178,-249 178,-246 178,-246 178,-240 178,-240 178,-237 181,-234 184,-234 184,-234 271,-234 271,-234 274,-234 277,-237 277,-240 277,-240 277,-246 277,-246 277,-249 274,-252 271,-252"/>
<text text-anchor="middle" x="227.5" y="-240.8" font-family="Helvetica,sans-Serif" font-size="9.00">call&#45;return&#45;context.ts</text>
</a>
</g>
</g>
<!-- src/models/index.ts&#45;&gt;src/models/call&#45;return&#45;context.ts -->
<g id="edge13" class="edge">
<title>src/models/index.ts&#45;&gt;src/models/call&#45;return&#45;context.ts</title>
<path fill="none" stroke="#000000" stroke-width="2" stroke-opacity="0.200000" d="M137.52,-222.14C143.34,-224.23 149.61,-226.32 155.5,-228 161.23,-229.63 167.26,-231.17 173.28,-232.6"/>
<polygon fill="#000000" fill-opacity="0.200000" stroke="#000000" stroke-width="2" stroke-opacity="0.200000" points="172.98,-234.68 179.3,-233.99 173.93,-230.59 172.98,-234.68"/>
</g>
<!-- src/models/contract&#45;call&#45;context.ts -->
<g id="node16" class="node">
<title>src/models/contract&#45;call&#45;context.ts</title>
<g id="a_node16"><a xlink:href="src/models/contract-call-context.ts" xlink:title="contract&#45;call&#45;context.ts">
<path fill="#ddfeff" stroke="black" d="M275,-282C275,-282 180,-282 180,-282 177,-282 174,-279 174,-276 174,-276 174,-270 174,-270 174,-267 177,-264 180,-264 180,-264 275,-264 275,-264 278,-264 281,-267 281,-270 281,-270 281,-276 281,-276 281,-279 278,-282 275,-282"/>
<text text-anchor="middle" x="227.5" y="-270.8" font-family="Helvetica,sans-Serif" font-size="9.00">contract&#45;call&#45;context.ts</text>
</a>
</g>
</g>
<!-- src/models/index.ts&#45;&gt;src/models/contract&#45;call&#45;context.ts -->
<g id="edge14" class="edge">
<title>src/models/index.ts&#45;&gt;src/models/contract&#45;call&#45;context.ts</title>
<path fill="none" stroke="#000000" stroke-width="2" stroke-opacity="0.200000" d="M137.97,-222.17C139.61,-223.31 141.15,-224.59 142.5,-226 153.12,-237.08 143.72,-248.15 155.5,-258 159.24,-261.13 163.47,-263.65 167.95,-265.68"/>
<polygon fill="#000000" fill-opacity="0.200000" stroke="#000000" stroke-width="2" stroke-opacity="0.200000" points="167.4,-267.72 173.75,-268 168.96,-263.82 167.4,-267.72"/>
</g>
<!-- src/models/contract&#45;call&#45;results.ts -->
<g id="node17" class="node">
<title>src/models/contract&#45;call&#45;results.ts</title>
<g id="a_node17"><a xlink:href="src/models/contract-call-results.ts" xlink:title="contract&#45;call&#45;results.ts">
<path fill="#ddfeff" stroke="black" d="M274,-312C274,-312 181,-312 181,-312 178,-312 175,-309 175,-306 175,-306 175,-300 175,-300 175,-297 178,-294 181,-294 181,-294 274,-294 274,-294 277,-294 280,-297 280,-300 280,-300 280,-306 280,-306 280,-309 277,-312 274,-312"/>
<text text-anchor="middle" x="227.5" y="-300.8" font-family="Helvetica,sans-Serif" font-size="9.00">contract&#45;call&#45;results.ts</text>
</a>
</g>
</g>
<!-- src/models/index.ts&#45;&gt;src/models/contract&#45;call&#45;results.ts -->
<g id="edge15" class="edge">
<title>src/models/index.ts&#45;&gt;src/models/contract&#45;call&#45;results.ts</title>
<path fill="none" stroke="#000000" stroke-width="2" stroke-opacity="0.200000" d="M138.52,-222.12C139.99,-223.27 141.34,-224.56 142.5,-226 160.09,-247.98 135.61,-268.08 155.5,-288 159.42,-291.93 164.1,-294.95 169.15,-297.26"/>
<polygon fill="#000000" fill-opacity="0.200000" stroke="#000000" stroke-width="2" stroke-opacity="0.200000" points="168.41,-299.22 174.76,-299.49 169.97,-295.32 168.41,-299.22"/>
</g>
<!-- src/models/contract&#45;call&#45;return&#45;context.ts -->
<g id="node18" class="node">
<title>src/models/contract&#45;call&#45;return&#45;context.ts</title>
<g id="a_node18"><a xlink:href="src/models/contract-call-return-context.ts" xlink:title="contract&#45;call&#45;return&#45;context.ts">
<path fill="#ddfeff" stroke="black" d="M288.5,-342C288.5,-342 166.5,-342 166.5,-342 163.5,-342 160.5,-339 160.5,-336 160.5,-336 160.5,-330 160.5,-330 160.5,-327 163.5,-324 166.5,-324 166.5,-324 288.5,-324 288.5,-324 291.5,-324 294.5,-327 294.5,-330 294.5,-330 294.5,-336 294.5,-336 294.5,-339 291.5,-342 288.5,-342"/>
<text text-anchor="middle" x="227.5" y="-330.8" font-family="Helvetica,sans-Serif" font-size="9.00">contract&#45;call&#45;return&#45;context.ts</text>
</a>
</g>
</g>
<!-- src/models/index.ts&#45;&gt;src/models/contract&#45;call&#45;return&#45;context.ts -->
<g id="edge16" class="edge">
<title>src/models/index.ts&#45;&gt;src/models/contract&#45;call&#45;return&#45;context.ts</title>
<path fill="none" stroke="#000000" stroke-width="2" stroke-opacity="0.200000" d="M138.63,-222.03C140.08,-223.2 141.39,-224.52 142.5,-226 167.21,-259.08 127.31,-287.83 155.5,-318 156.15,-318.69 156.81,-319.35 157.5,-319.99"/>
<polygon fill="#000000" fill-opacity="0.200000" stroke="#000000" stroke-width="2" stroke-opacity="0.200000" points="156.33,-321.74 162.34,-323.81 158.94,-318.45 156.33,-321.74"/>
</g>
<!-- src/multicall.ts&#45;&gt;src/enums/index.ts -->
<g id="edge18" class="edge">
<title>src/multicall.ts&#45;&gt;src/enums/index.ts</title>
<path fill="none" stroke="#000000" stroke-width="2" stroke-opacity="0.200000" d="M142.68,-438C158.31,-438 177.72,-438 193.92,-438"/>
<polygon fill="#000000" fill-opacity="0.200000" stroke="#000000" stroke-width="2" stroke-opacity="0.200000" points="194.19,-440.1 200.19,-438 194.19,-435.9 194.19,-440.1"/>
</g>
<!-- src/utils.ts -->
<g id="node19" class="node">
<title>src/utils.ts</title>
<g id="a_node19"><a xlink:href="src/utils.ts" xlink:title="utils.ts">
<path fill="#ddfeff" stroke="black" d="M248.5,-514C248.5,-514 206.5,-514 206.5,-514 203.5,-514 200.5,-511 200.5,-508 200.5,-508 200.5,-502 200.5,-502 200.5,-499 203.5,-496 206.5,-496 206.5,-496 248.5,-496 248.5,-496 251.5,-496 254.5,-499 254.5,-502 254.5,-502 254.5,-508 254.5,-508 254.5,-511 251.5,-514 248.5,-514"/>
<text text-anchor="middle" x="227.5" y="-502.8" font-family="Helvetica,sans-Serif" font-size="9.00">utils.ts</text>
</a>
</g>
</g>
<!-- src/multicall.ts&#45;&gt;src/utils.ts -->
<g id="edge19" class="edge">
<title>src/multicall.ts&#45;&gt;src/utils.ts</title>
<path fill="none" stroke="#000000" stroke-width="2" stroke-opacity="0.200000" d="M118.49,-447.14C124.93,-459.22 137.97,-480.24 155.5,-491 167,-498.06 181.35,-501.66 194.14,-503.46"/>
<polygon fill="#000000" fill-opacity="0.200000" stroke="#000000" stroke-width="2" stroke-opacity="0.200000" points="194.06,-505.57 200.27,-504.21 194.56,-501.4 194.06,-505.57"/>
</g>
</g>
</svg>
